<?xml version="1.0" standalone="no"?>
<!DOCTYPE svg PUBLIC "-//W3C//DTD SVG 20010904//EN"
 "http://www.w3.org/TR/2001/REC-SVG-20010904/DTD/svg10.dtd">
<svg version="1.0" xmlns="http://www.w3.org/2000/svg"
 width="286.000000pt" height="126.000000pt" viewBox="0 0 286.000000 126.000000"
 preserveAspectRatio="xMidYMid meet">
<metadata>
Created by potrace 1.10, written by Peter Selinger 2001-2011
</metadata>
<g transform="translate(0.000000,126.000000) scale(0.100000,-0.100000)"
fill="#000000" stroke="none">
<path d="M860 923 l0 -193 33 0 32 0 -4 97 c-3 109 4 123 65 123 41 0 44 -9
44 -126 l0 -94 30 0 30 0 0 109 c0 94 -3 112 -21 135 -24 31 -73 35 -121 10
l-30 -16 4 70 4 70 -33 4 -33 4 0 -193z m51 50 c6 -7 7 -18 2 -25 -4 -7 -11
-53 -14 -103 -4 -67 -5 -46 -5 80 0 94 1 145 3 115 3 -30 9 -60 14 -67z m145
-114 c0 -101 0 -101 -3 -14 -2 49 -8 94 -13 99 -14 14 -12 28 3 24 8 -3 12
-35 13 -109z"/>
<path d="M1455 1112 c-3 -3 -5 -90 -5 -194 l0 -188 35 0 35 0 0 189 0 189 -30
4 c-17 3 -32 2 -35 0z"/>
<path d="M608 1043 c-26 -16 -48 -51 -48 -77 0 -28 44 -68 106 -96 55 -25 64
-33 64 -55 0 -42 -56 -54 -146 -29 -16 4 -23 0 -27 -16 -7 -27 27 -42 103 -42
66 -1 113 20 129 60 22 53 -9 97 -94 130 -57 22 -75 44 -59 70 13 20 83 28
113 13 18 -10 31 2 31 28 0 31 -128 41 -172 14z m4 -63 c-2 -17 1 -37 8 -45
15 -18 -1 -20 -18 -3 -13 13 -16 60 -5 71 14 14 19 6 15 -23z m158 -160 c0
-15 -7 -33 -15 -40 -12 -10 -13 -6 -8 24 4 27 1 42 -13 58 l-19 21 28 -18 c19
-12 27 -26 27 -45z"/>
<path d="M1626 1025 c-5 -26 -13 -36 -31 -41 -29 -7 -34 -34 -6 -34 17 0 19
-9 23 -91 3 -81 6 -93 27 -110 14 -11 39 -19 61 -19 53 0 69 8 63 30 -4 15
-13 19 -41 17 -42 -2 -49 13 -51 111 l-1 62 40 0 c35 0 40 3 40 23 0 20 -4 22
-41 19 l-41 -4 4 36 c3 32 1 36 -18 36 -17 0 -23 -8 -28 -35z m36 -67 c-15
-15 -16 -151 -2 -178 8 -16 7 -18 -4 -14 -15 6 -25 56 -27 150 -3 73 6 93 29
70 13 -12 14 -18 4 -28z"/>
<path d="M1221 987 c-88 -45 -93 -200 -7 -244 44 -23 105 -22 144 3 29 18 31
22 19 39 -13 17 -15 17 -38 2 -13 -10 -38 -17 -56 -17 -34 0 -53 20 -68 68 -6
22 -5 22 84 22 l91 0 0 31 c0 64 -43 109 -105 109 -22 0 -51 -6 -64 -13z m93
-43 c31 -31 20 -44 -39 -44 -59 0 -67 8 -35 40 24 24 53 26 74 4z m46 -24 c0
-16 -4 -30 -8 -30 -5 0 -7 14 -4 30 2 17 6 30 8 30 2 0 4 -13 4 -30z m-155
-19 c3 -11 0 -29 -7 -40 -10 -16 -9 -27 5 -58 l17 -38 -20 24 c-15 17 -20 37
-20 77 0 54 13 72 25 35z"/>
<path d="M1875 990 c-63 -26 -93 -118 -62 -192 28 -66 111 -95 176 -61 38 20
45 31 32 52 -7 11 -13 11 -32 -3 -36 -25 -84 -21 -108 10 -12 15 -21 35 -21
45 0 17 9 19 84 19 92 0 100 6 90 58 -7 34 -22 55 -51 70 -25 14 -78 15 -108
2z m89 -52 c24 -34 20 -38 -42 -38 -55 0 -58 -1 -71 -32 -11 -24 -12 -38 -3
-60 6 -16 6 -28 1 -28 -9 0 -24 51 -23 80 3 60 4 65 14 50 8 -12 14 -10 36 18
30 38 66 42 88 10z m46 -24 c0 -35 -15 -30 -16 6 -1 16 3 27 7 24 5 -3 9 -16
9 -30z"/>
<path d="M2100 863 l0 -133 33 0 32 0 -3 93 c-4 92 -4 93 23 105 14 7 36 12
49 12 19 0 23 5 23 31 0 29 -2 30 -31 25 -16 -4 -38 -14 -48 -22 -16 -16 -18
-15 -25 2 -5 11 -18 19 -30 20 -23 1 -23 -1 -23 -133z m55 87 c4 -6 2 -17 -4
-23 -5 -7 -12 -49 -14 -92 -3 -77 -3 -76 -5 23 -2 93 5 121 23 92z"/>
<path d="M2080 635 c-26 -31 13 -82 44 -56 19 16 21 42 4 59 -16 16 -33 15
-48 -3z"/>
<path d="M1930 575 l0 -61 -38 4 c-49 5 -105 -19 -127 -52 -41 -62 -25 -166
31 -203 32 -21 96 -22 121 -2 13 11 17 11 20 2 3 -7 16 -13 29 -13 l24 0 0
193 0 192 -30 0 -30 0 0 -60z m38 -132 c-2 -99 -7 -158 -14 -160 -7 -2 -9 26
-6 87 3 61 1 95 -7 104 -9 11 -9 20 -2 35 6 11 11 36 11 55 0 20 5 36 10 36 7
0 10 -55 8 -157z m-169 0 c-24 -48 -24 -90 1 -131 19 -31 19 -32 1 -23 -25 14
-31 32 -31 94 0 38 5 56 22 74 12 13 22 23 24 23 1 0 -7 -17 -17 -37z m122 27
c5 0 9 -36 9 -80 0 -86 -9 -100 -64 -100 -46 0 -72 73 -51 140 7 23 61 52 83
45 8 -3 18 -5 23 -5z"/>
<path d="M360 415 l0 -165 33 0 32 0 -3 165 -3 165 -29 0 -30 0 0 -165z m27
-67 c-1 -40 -3 -10 -3 67 0 77 1 110 3 73 2 -37 2 -100 0 -140z"/>
<path d="M979 557 c-27 -18 -35 -30 -37 -61 -4 -48 22 -79 86 -100 45 -16 82
-41 82 -58 0 -4 -9 -17 -20 -28 -23 -23 -67 -26 -114 -6 -32 13 -34 13 -44 -9
-10 -21 -7 -25 19 -35 78 -33 193 -4 213 53 18 51 -2 78 -87 120 -78 38 -93
57 -65 85 15 15 82 16 109 2 16 -9 21 -7 28 12 7 19 5 25 -18 35 -44 20 -114
16 -152 -10z m4 -51 c-3 -13 0 -34 7 -46 9 -18 9 -21 -1 -18 -21 7 -32 34 -25
61 8 33 25 36 19 3z m157 -157 c0 -33 -9 -59 -21 -59 -5 0 -3 11 3 25 10 22 8
30 -11 55 l-21 30 25 -12 c18 -8 25 -19 25 -39z"/>
<path d="M1256 545 c-5 -26 -13 -36 -31 -41 -29 -7 -34 -34 -6 -34 17 0 19 -9
23 -91 3 -81 6 -93 27 -110 14 -11 39 -19 61 -19 53 0 69 8 63 30 -4 15 -13
19 -41 17 -42 -2 -49 13 -51 111 l-1 62 40 0 c35 0 40 3 40 23 0 20 -4 22 -41
19 l-41 -4 4 36 c3 32 1 36 -18 36 -17 0 -23 -8 -28 -35z m35 -68 c-14 -14
-15 -152 -1 -177 8 -16 8 -18 -5 -14 -12 5 -15 24 -15 88 0 45 -5 87 -10 92
-8 8 -7 19 1 37 12 27 12 27 27 6 10 -15 11 -24 3 -32z"/>
<path d="M515 512 c-3 -3 -5 -63 -5 -134 l0 -128 35 0 35 0 0 99 c0 111 7 124
62 119 l33 -3 3 -107 3 -108 32 0 32 0 -5 120 c-4 104 -8 121 -25 134 -26 20
-78 20 -115 1 -23 -12 -31 -12 -37 -2 -8 13 -38 19 -48 9z m195 -42 c13 -24
11 -190 -1 -190 -5 0 -9 39 -9 87 0 66 -4 91 -17 105 -15 16 -15 18 0 18 9 0
21 -9 27 -20z m-157 -77 c-6 -127 -11 -133 -12 -15 0 56 3 102 7 102 5 0 7
-39 5 -87z"/>
<path d="M1450 413 c0 -123 8 -147 53 -162 34 -12 51 -9 96 12 19 9 25 9 28 0
3 -7 16 -13 29 -13 l24 0 0 133 0 132 -30 0 -30 0 0 -101 c0 -98 -1 -101 -25
-112 -69 -31 -85 -8 -85 120 l0 93 -30 0 -30 0 0 -102z m59 -127 c8 -9 9 -16
3 -16 -13 0 -25 18 -29 42 -2 10 -3 21 -4 25 -1 4 0 40 2 78 l3 70 5 -91 c4
-55 11 -98 20 -108z m150 94 c-1 -82 -4 -100 -16 -100 -11 0 -13 6 -9 23 4 12
7 57 6 100 -1 50 3 77 10 77 7 0 10 -33 9 -100z"/>
<path d="M2080 515 c0 0 -2 -60 -3 -133 l-2 -132 33 0 32 0 0 133 0 132 -30 0
c-16 0 -30 0 -30 0z m27 -187 c-2 -29 -3 -6 -3 52 0 58 1 81 3 53 2 -29 2 -77
0 -105z"/>
<path d="M2268 504 c-38 -20 -60 -68 -60 -126 0 -80 49 -131 125 -131 107 0
166 95 123 198 -28 65 -122 95 -188 59z m117 -54 c22 -25 23 -101 1 -134 -20
-32 -67 -35 -96 -6 -22 22 -28 97 -9 131 21 39 73 44 104 9z m41 3 c7 -10 13
-36 13 -58 l-1 -40 -9 44 c-4 24 -14 49 -20 57 -6 8 -8 14 -4 14 4 0 14 -8 21
-17z m-175 -24 c-9 -25 -1 -104 13 -129 6 -11 3 -10 -9 2 -22 21 -32 107 -15
137 15 29 23 21 11 -10z m189 -88 c0 -5 -9 -19 -20 -32 l-21 -24 16 33 c15 31
25 41 25 23z"/>
</g>
</svg>
